HIERARCHY
ROOT Hips
{
	OFFSET 0.000000 0.000000 0.000000
	CHANNELS 6 Xposition Yposition Zposition Zrotation Yrotation Xrotation 
	JOINT LHipJoint
	{
		OFFSET 0.000000 0.000000 0.000000
		CHANNELS 3 Zrotation Yrotation Xrotation
		JOINT LeftUpLeg
		{
			OFFSET 1.363060 -1.794630 0.839290
			CHANNELS 3 Zrotation Yrotation Xrotation
			JOINT LeftLeg
			{
				OFFSET 2.448110 -6.726130 0.000000
				CHANNELS 3 Zrotation Yrotation Xrotation
				JOINT LeftFoot
				{
					OFFSET 2.562200 -7.039590 0.000000
					CHANNELS 3 Zrotation Yrotation Xrotation
					JOINT LeftToeBase
					{
						OFFSET 0.157640 -0.433110 2.322550
						CHANNELS 3 Zrotation Yrotation Xrotation
						End Site
						{
							OFFSET 0.000000 0.000000 0.000000
						}
					}
				}
			}
		}
	}
	JOINT RHipJoint
	{
		OFFSET 0.000000 0.000000 0.000000
		CHANNELS 3 Zrotation Yrotation Xrotation
		JOINT RightUpLeg
		{
			OFFSET -1.305520 -1.794630 0.839290
			CHANNELS 3 Zrotation Yrotation Xrotation
			JOINT RightLeg
			{
				OFFSET -2.542530 -6.985550 0.000000
				CHANNELS 3 Zrotation Yrotation Xrotation
				JOINT RightFoot
				{
					OFFSET -2.568260 -7.056230 0.000000
					CHANNELS 3 Zrotation Yrotation Xrotation
					JOINT RightToeBase
					{
						OFFSET -0.164730 -0.452590 2.363150
						CHANNELS 3 Zrotation Yrotation Xrotation
						End Site
						{
							OFFSET 0.000000 0.000000 0.000000
						}
					}
				}
			}
		}
	}
	JOINT LowerBack
	{
		OFFSET 0.000000 0.000000 0.000000
		CHANNELS 3 Zrotation Yrotation Xrotation
		JOINT Spine
		{
			OFFSET 0.028270 2.035590 -0.193380
			CHANNELS 3 Zrotation Yrotation Xrotation
			JOINT Spine1
			{
				OFFSET 0.056720 2.048850 -0.042750
				CHANNELS 3 Zrotation Yrotation Xrotation
				JOINT Neck
				{
					OFFSET 0.000000 0.000000 0.000000
					CHANNELS 3 Zrotation Yrotation Xrotation
					JOINT Neck1
					{
						OFFSET -0.054170 1.746240 0.172020
						CHANNELS 3 Zrotation Yrotation Xrotation
						JOINT Head
						{
							OFFSET 0.104070 1.761360 -0.123970
							CHANNELS 3 Zrotation Yrotation Xrotation
							End Site
							{
								OFFSET 0.000000 0.000000 0.000000
							}
						}
					}
				}
				JOINT LeftShoulder
				{
					OFFSET 0.000000 0.000000 0.000000
					CHANNELS 3 Zrotation Yrotation Xrotation
					JOINT LeftArm
					{
						OFFSET 3.362410 1.200890 -0.311210
						CHANNELS 3 Zrotation Yrotation Xrotation
						JOINT LeftForeArm
						{
							OFFSET 4.983000 -0.000000 -0.000000
							CHANNELS 3 Zrotation Yrotation Xrotation
							JOINT LeftHand
							{
								OFFSET 3.483560 -0.000000 -0.000000
								CHANNELS 3 Zrotation Yrotation Xrotation
								JOINT LeftFingerBase
								{
									OFFSET 0.000000 0.000000 0.000000
									CHANNELS 3 Zrotation Yrotation Xrotation
									JOINT LeftHandIndex1
									{
										OFFSET 0.715260 -0.000000 -0.000000
										CHANNELS 3 Zrotation Yrotation Xrotation
										End Site
										{
											OFFSET 0.000000 0.000000 0.000000
										}
									}
								}
								JOINT LThumb
								{
									OFFSET 0.000000 0.000000 0.000000
									CHANNELS 3 Zrotation Yrotation Xrotation
									End Site
									{
										OFFSET 0.000000 0.000000 0.000000
									}
								}
							}
						}
					}
				}
				JOINT RightShoulder
				{
					OFFSET 0.000000 0.000000 0.000000
					CHANNELS 3 Zrotation Yrotation Xrotation
					JOINT RightArm
					{
						OFFSET -3.136600 1.374050 -0.404650
						CHANNELS 3 Zrotation Yrotation Xrotation
						JOINT RightForeArm
						{
							OFFSET -5.241900 -0.000000 -0.000000
							CHANNELS 3 Zrotation Yrotation Xrotation
							JOINT RightHand
							{
								OFFSET -3.444170 -0.000000 -0.000000
								CHANNELS 3 Zrotation Yrotation Xrotation
								JOINT RightFingerBase
								{
									OFFSET 0.000000 0.000000 0.000000
									CHANNELS 3 Zrotation Yrotation Xrotation
									JOINT RightHandIndex1
									{
										OFFSET -0.622530 -0.000000 -0.000000
										CHANNELS 3 Zrotation Yrotation Xrotation
										End Site
										{
											OFFSET 0.000000 0.000000 0.000000
										}
									}
								}
								JOINT RThumb
								{
									OFFSET 0.000000 0.000000 0.000000
									CHANNELS 3 Zrotation Yrotation Xrotation
									End Site
									{
										OFFSET 0.000000 0.000000 0.000000
									}
								}
							}
						}
					}
				}
			}
		}
	}
}
MOTION
Frames: 7
Frame Time: 0.008333
-3.645523 16.952218 -0.044106 3.129349 72.305685 5.384327 -10.353544 0.657975 3.670103 -1.274357 -6.775572 -23.898400 -1.463094 0.507996 15.069446 0.135975 -0.155969 5.396057 0.129600 -0.000000 -36.517300 9.079704 -2.543862 -1.298913 7.428792 -5.137856 12.740032 2.863562 -0.757289 13.471902 0.965167 10.092094 -7.727198 -0.044000 -0.000000 -46.682200 -2.529711 0.466916 -3.574342 -1.109597 0.484921 -3.008677 -5.515118 0.416278 2.303108 9.008380 -10.341770 -7.963889 -2.079592 -0.161883 -0.062463 0.000000 0.000000 0.000000 -7.694750 25.263590 0.712184 -77.644737 25.517449 6.017055 -3.414024 -21.610675 -0.014221 -4.558394 5.237779 -0.212273 -0.037576 -0.129484 -0.000000 0.000000 0.000000 0.000000 0.000000 0.000000 0.000000 10.612350 -4.931837 -1.255688 55.411555 13.497828 9.230739 1.676599 49.749620 0.007047 -0.314550 6.133850 -0.019908 0.060361 -0.179173 -0.000000 0.000000 0.000000 0.000000 0.000000 0.000000 0.000000 
-3.503097 16.959991 -0.030554 3.197329 71.512928 5.370699 -10.394993 0.741366 3.509518 -1.547729 -5.884869 -23.643215 -1.448251 0.557311 15.672968 0.158651 -0.028102 5.551665 0.147100 0.000000 -36.491200 9.165798 -2.602488 -1.245778 6.889249 -4.936532 12.577754 2.783728 -0.916046 14.624648 1.030116 10.557510 -7.066147 0.029700 0.000000 -48.521100 -2.606154 0.425797 -3.542273 -1.131099 0.451450 -3.012362 -5.548210 0.383900 2.277048 9.075334 -10.376144 -7.915807 -2.109963 -0.164896 -0.049580 0.000000 0.000000 0.000000 -7.596819 25.051748 0.670570 -77.202177 25.191231 6.526424 -3.408161 -21.781513 -0.013736 -4.420869 4.972835 -0.195559 -0.039095 -0.128033 -0.000000 0.000000 0.000000 0.000000 0.000000 0.000000 0.000000 10.783234 -4.987857 -1.263358 55.923951 13.207859 9.496408 1.710921 49.500700 0.007358 -0.273938 6.159919 -0.017696 0.061492 -0.176502 -0.000000 0.000000 0.000000 0.000000 0.000000 0.000000 0.000000 
-3.361539 16.969002 -0.015955 3.309078 70.701211 5.384205 -10.433089 0.825078 3.328672 -1.858053 -4.865198 -23.371248 -1.449236 0.598754 16.244790 0.176472 0.064349 5.545184 0.158000 0.000000 -36.526600 9.260037 -2.662294 -1.188535 6.310393 -4.742638 12.369219 2.692305 -1.077961 15.828660 1.095969 11.069286 -6.325566 0.125400 -0.000000 -50.535800 -2.695368 0.379673 -3.498134 -1.154748 0.414586 -3.014606 -5.581491 0.348295 2.250339 9.136951 -10.403441 -7.865404 -2.141940 -0.168042 -0.036228 0.000000 0.000000 0.000000 -7.488557 24.819275 0.632057 -76.725839 24.809530 6.999441 -3.407253 -21.874282 -0.013305 -4.281941 4.752478 -0.181045 -0.040922 -0.126694 -0.000000 0.000000 0.000000 0.000000 0.000000 0.000000 0.000000 10.950605 -5.039782 -1.272284 56.499239 12.888318 9.704399 1.749631 49.175092 0.007661 -0.240811 6.179882 -0.015983 0.062838 -0.173638 -0.000000 0.000000 0.000000 0.000000 0.000000 0.000000 0.000000 
-3.221137 16.979069 -0.000439 3.449172 69.869995 5.413671 -10.467019 0.909563 3.133414 -2.188293 -3.754406 -23.074350 -1.465953 0.632791 16.776858 0.188120 0.111581 5.377672 0.160100 0.000000 -36.632500 9.362621 -2.723310 -1.128788 5.694434 -4.562928 12.103428 2.589375 -1.243089 17.092329 1.163554 11.651922 -5.491391 0.249800 -0.000000 -52.698500 -2.792173 0.329686 -3.443819 -1.179365 0.374946 -3.015917 -5.614124 0.310045 2.221941 9.189330 -10.431042 -7.813467 -2.175103 -0.171286 -0.022542 0.000000 0.000000 0.000000 -7.376965 24.554132 0.596527 -76.220249 24.386217 7.408891 -3.411963 -21.899219 -0.012945 -4.144501 4.585279 -0.169033 -0.043046 -0.125495 -0.000000 0.000000 0.000000 0.000000 0.000000 0.000000 0.000000 11.110229 -5.095811 -1.280855 57.133655 12.548344 9.859652 1.792928 48.770472 0.007954 -0.217020 6.191440 -0.014772 0.064446 -0.170579 -0.000000 0.000000 0.000000 0.000000 0.000000 0.000000 0.000000 
-3.082118 16.989917 0.015809 3.608072 69.018583 5.453885 -10.496137 0.995242 2.930217 -2.524740 -2.593107 -22.745072 -1.497195 0.659867 17.261459 0.193512 0.113603 5.061448 0.153500 0.000000 -36.809400 9.474382 -2.785433 -1.068685 5.040077 -4.409446 11.764614 2.474436 -1.411456 18.429590 1.232401 12.328072 -4.553853 0.411100 -0.000000 -54.979100 -2.893472 0.276849 -3.381661 -1.204259 0.333155 -3.016652 -5.645467 0.269732 2.192157 9.229967 -10.457464 -7.760814 -2.209245 -0.174605 -0.008720 0.000000 0.000000 0.000000 -7.259802 24.257011 0.565075 -75.691683 23.922976 7.744328 -3.422670 -21.854062 -0.012653 -4.007866 4.473462 -0.159419 -0.045486 -0.124413 -0.000000 0.000000 0.000000 0.000000 0.000000 0.000000 0.000000 11.258858 -5.154019 -1.288765 57.820916 12.185757 9.957803 1.840172 48.294871 0.008234 -0.199639 6.190188 -0.013860 0.066242 -0.167329 -0.000000 0.000000 0.000000 0.000000 0.000000 0.000000 0.000000 
-2.944772 17.001189 0.032671 3.784768 68.145889 5.508231 -10.519713 1.082443 2.725777 -2.858920 -1.423235 -22.377138 -1.540812 0.680288 17.691115 0.193865 0.081326 4.618606 0.141100 0.000000 -37.047500 9.596899 -2.848282 -1.010836 4.341870 -4.298862 11.333895 2.345828 -1.582821 19.855741 1.300050 13.110776 -3.502460 0.620000 0.000001 -57.435200 -2.999256 0.221773 -3.314239 -1.229375 0.289669 -3.017035 -5.674983 0.227763 2.162108 9.258290 -10.481362 -7.709018 -2.244206 -0.177969 0.004822 0.000000 0.000000 0.000000 -7.131898 23.933422 0.538812 -75.146574 23.417905 8.002131 -3.439621 -21.735090 -0.012433 -3.870357 4.415770 -0.151807 -0.048261 -0.123403 -0.000000 0.000000 0.000000 0.000000 0.000000 0.000000 0.000000 11.396075 -5.212417 -1.295927 58.552306 11.799086 9.996938 1.890460 47.759606 0.008493 -0.185657 6.173211 -0.013148 0.068139 -0.163907 -0.000000 0.000000 0.000000 0.000000 0.000000 0.000000 0.000000 
-2.809326 17.012572 0.050017 3.974259 67.250258 5.576776 -10.537463 1.171052 2.526095 -3.184280 -0.281889 -21.967927 -1.593618 0.694337 18.060767 0.191409 0.033819 4.077105 0.127101 -0.000000 -37.328600 9.730372 -2.910415 -0.956537 3.602022 -4.238381 10.794656 2.202620 -1.755714 21.386836 1.361364 13.992030 -2.351745 0.883800 -0.000000 -59.911400 -3.107839 0.165269 -3.244810 -1.254345 0.244987 -3.017578 -5.702232 0.184573 2.131941 9.273897 -10.504415 -7.659091 -2.279839 -0.181360 0.017859 0.000000 0.000000 0.000000 -6.992744 23.582120 0.517899 -74.590511 22.878944 8.172677 -3.462856 -21.548710 -0.012276 -3.729780 4.408545 -0.145794 -0.051375 -0.122424 -0.000000 0.000000 0.000000 0.000000 0.000000 0.000000 0.000000 11.521955 -5.272697 -1.301364 59.317746 11.393035 9.982244 1.943259 47.171896 0.008728 -0.173809 6.139487 -0.012538 0.070096 -0.160331 -0.000000 0.000000 0.000000 0.000000 0.000000 0.000000 0.000000 
